<svg width="462" height="439" viewBox="0 0 462 439" fill="none" xmlns="http://www.w3.org/2000/svg">
<path fill-rule="evenodd" clip-rule="evenodd" d="M461.435 115.422L314.387 115.422H294.435L200.978 115.422C153.408 115.422 114.844 153.985 114.844 201.556C114.844 226.926 94.2774 247.493 68.9067 247.493L0 247.493L4.01601e-06 201.555C1.37197e-05 90.5585 89.9809 0.577754 200.978 0.577764L294.435 0.577774L314.387 0.577774L461.435 0.577759V115.422ZM315.822 191.578V191.507H246.915C221.545 191.507 200.978 212.074 200.978 237.444C200.978 285.015 162.414 323.578 114.844 323.578H1.43549V438.422H114.844C201.608 438.422 275.53 383.443 303.673 306.422H390.022L390.022 191.578L315.822 191.578Z" fill="black"/>
</svg>
